<?xml version="1.0" encoding="UTF-8"?>
<svg width="1214px" height="941px" viewBox="0 0 1214 941" version="1.1" xmlns="http://www.w3.org/2000/svg" xmlns:xlink="http://www.w3.org/1999/xlink">
    <!-- Generator: Sketch 59.1 (86144) - https://sketch.com -->
    <title>Matrix_mult_3</title>
    <desc>Created with Sketch.</desc>
    <g id="Matrix_mult_3" stroke="none" stroke-width="1" fill="none" fill-rule="evenodd">
        <rect id="Rectangle" fill="#FA4359" x="286" y="421" width="176" height="41" rx="20.5"></rect>
        <rect id="Rectangle-Copy" fill="#FA4359" transform="translate(601.000000, 414.500000) rotate(-270.000000) translate(-601.000000, -414.500000) " x="516" y="394" width="170" height="41" rx="20.5"></rect>
        <rect id="Rectangle" fill="#FA4359" x="802" y="423" width="65" height="41" rx="20.5"></rect>
        <path d="M748.380859,416.293443 L748.380859,414.490709 L760.631836,414.490709 L760.631836,416.293443 L748.380859,416.293443 Z M748.368164,410.936021 L748.368164,409.107896 L760.631836,409.107896 L760.631836,410.936021 L748.368164,410.936021 Z" id="=" fill="#FFFFFF" fill-rule="nonzero"></path>
        <polygon id="x" fill="#FFFFFF" fill-rule="nonzero" points="519.287598 413.995591 514.374512 407.152818 516.799316 407.152818 520.519043 412.459459 524.251465 407.152818 526.67627 407.152818 521.750488 414.020982 526.803223 421.079576 524.45459 421.079576 520.531738 415.480943 516.608887 421.079576 514.184082 421.079576"></polygon>
        <path d="M306.360352,379.087388 L308.378906,379.087388 L308.378906,398.079576 L306.131836,398.079576 L306.131836,381.436021 C305.277014,381.994618 304.231777,382.472803 302.996094,382.870591 L302.996094,380.750474 L304.754395,379.988755 L304.754395,379.988755 C304.961752,379.895656 305.222004,379.764472 305.535156,379.595201 C305.848309,379.425929 306.123371,379.25666 306.360352,379.087388 Z" id="1" fill="#FFFFFF" fill-rule="nonzero"></path>
        <path d="M833.271973,379.087388 L833.094238,381.16942 L825.337402,381.16942 L825.146973,387.148912 L825.146973,387.148912 C826.103358,386.539534 827.140131,386.234849 828.257324,386.234849 C829.196782,386.234849 830.03678,386.385076 830.777344,386.685533 C831.517907,386.98599 832.123045,387.398584 832.592773,387.923326 C833.062502,388.448068 833.420083,389.059553 833.665527,389.757798 C833.910971,390.456044 834.033691,391.211408 834.033691,392.023912 C834.033691,393.945145 833.417975,395.483379 832.186523,396.638658 C830.955072,397.793937 829.281423,398.371568 827.165527,398.371568 C825.041168,398.371568 823.340013,397.791821 822.062012,396.63231 L822.887207,394.842271 C824.139817,395.824047 825.5913,396.314927 827.241699,396.314927 C828.629727,396.314927 829.725745,395.921377 830.529785,395.134263 C831.333826,394.34715 831.73584,393.31884 831.73584,392.049302 C831.73584,390.915182 831.397302,389.994781 830.720215,389.288072 C830.043128,388.581363 829.078294,388.228013 827.825684,388.228013 C826.573073,388.228013 825.565922,388.646954 824.804199,389.484849 L823.039551,389.243638 L823.534668,379.087388 L833.271973,379.087388 Z" id="58" fill="#FFFFFF" fill-rule="nonzero"></path>
        <path d="M843.009277,378.719224 C844.727385,378.719224 846.119624,379.142397 847.186035,379.988755 C848.252447,380.835114 848.785645,382.007303 848.785645,383.505357 C848.785645,384.62255 848.497887,385.561994 847.922363,386.323716 C847.34684,387.085439 846.542811,387.669417 845.510254,388.07567 C846.652838,388.481922 847.549964,389.133608 848.20166,390.030748 C848.853356,390.927888 849.179199,391.981588 849.179199,393.19188 C849.179199,394.816889 848.593105,396.086407 847.420898,397.000474 C846.248692,397.914541 844.778166,398.371568 843.009277,398.371568 C841.85823,398.371568 840.819341,398.179024 839.892578,397.793931 C838.965816,397.408838 838.214684,396.818512 837.63916,396.022935 C837.063636,395.227358 836.775879,394.283683 836.775879,393.19188 C836.775879,391.981588 837.122881,390.927888 837.816895,390.030748 C838.510908,389.133608 839.479974,388.481922 840.724121,388.07567 C838.354318,387.237775 837.169434,385.714352 837.169434,383.505357 C837.169434,382.007303 837.711095,380.835114 838.794434,379.988755 C839.877772,379.142397 841.282706,378.719224 843.009277,378.719224 Z M843.009277,389.154771 C841.798985,389.434069 840.829919,389.901675 840.102051,390.557603 C839.374183,391.213531 839.010254,392.040834 839.010254,393.039537 C839.010254,394.080558 839.386878,394.90786 840.140137,395.52147 C840.893396,396.13508 841.849766,396.44188 843.009277,396.44188 C844.168788,396.44188 845.11458,396.13508 845.84668,395.52147 C846.57878,394.90786 846.944824,394.080558 846.944824,393.039537 C846.944824,392.03237 846.589359,391.200836 845.878418,390.544908 C845.167477,389.88898 844.211106,389.425606 843.009277,389.154771 Z M843.009277,380.648912 C842.010574,380.648912 841.162113,380.898584 840.463867,381.397935 C839.765622,381.897287 839.416504,382.582827 839.416504,383.454576 C839.416504,385.451982 840.614083,386.717268 843.009277,387.250474 C845.370617,386.717268 846.55127,385.451982 846.55127,383.454576 C846.55127,382.582827 846.2085,381.897287 845.522949,381.397935 C844.837399,380.898584 843.999517,380.648912 843.009277,380.648912 Z" id="Combined-Shape" fill="#FFFFFF" fill-rule="nonzero"></path>
        <path d="M820.963867,434.007812 L822.982422,434.007812 L822.982422,453 L820.735352,453 L820.735352,436.356445 C819.88053,436.915042 818.835293,437.393227 817.599609,437.791016 L817.599609,435.670898 L819.35791,434.90918 L819.35791,434.90918 L819.632129,434.77918 C819.781933,434.705039 819.95078,434.617188 820.138672,434.515625 C820.451824,434.346353 820.726887,434.177084 820.963867,434.007812 Z M831.374023,453.291992 C830.239903,453.291992 829.230636,453.143882 828.346191,452.847656 C827.461747,452.551431 826.816408,452.208661 826.410156,451.819336 L827.121094,449.953125 C828.314459,450.892583 829.73632,451.362305 831.386719,451.362305 C832.656256,451.362305 833.665524,451.047041 834.414551,450.416504 C835.163578,449.785967 835.538086,448.903652 835.538086,447.769531 C835.538086,447.15169 835.442872,446.612144 835.252441,446.150879 C835.062011,445.689614 834.808107,445.317221 834.490723,445.033691 C834.173338,444.750161 833.767092,444.521648 833.271973,444.348145 C832.776853,444.174641 832.269046,444.051921 831.748535,443.97998 C831.228025,443.90804 830.625003,443.863607 829.939453,443.84668 L829.177734,443.833984 L829.177734,443.833984 L829.177734,441.942383 L829.8125,441.942383 C830.404951,441.933919 830.927569,441.902181 831.380371,441.847168 C831.833173,441.792155 832.285968,441.692709 832.73877,441.548828 C833.191571,441.404947 833.566079,441.214519 833.862305,440.977539 C834.15853,440.740559 834.399739,440.423179 834.585938,440.025391 C834.772136,439.627602 834.865234,439.15788 834.865234,438.616211 C834.865234,436.584951 833.701509,435.569336 831.374023,435.569336 C830.536129,435.569336 829.749027,435.692056 829.012695,435.9375 C828.276364,436.182944 827.645836,436.513019 827.121094,436.927734 L826.410156,435.074219 C827.67123,434.117834 829.486642,433.639648 831.856445,433.639648 C832.81283,433.639648 833.697262,433.815265 834.509766,434.166504 C835.32227,434.517743 835.990883,435.055172 836.515625,435.778809 C837.040367,436.502445 837.302734,437.350907 837.302734,438.324219 C837.302734,439.509121 837.010745,440.482418 836.426758,441.244141 C835.842771,442.005863 835.021815,442.551756 833.963867,442.881836 C835.148769,443.135743 836.077633,443.6901 836.750488,444.544922 C837.423343,445.399744 837.759766,446.483066 837.759766,447.794922 C837.759766,449.462248 837.163092,450.795242 835.969727,451.793945 C834.776361,452.792648 833.244475,453.291992 831.374023,453.291992 Z" id="139" fill="#FFFFFF" fill-rule="nonzero"></path>
        <path d="M846.595703,433.639648 C847.585942,433.639648 848.485185,433.798338 849.293457,434.115723 C850.101729,434.433107 850.766111,434.868975 851.286621,435.42334 C851.807132,435.977705 852.209146,436.625159 852.492676,437.365723 C852.776206,438.106286 852.917969,438.908199 852.917969,439.771484 C852.917969,440.981777 852.710614,442.077795 852.295898,443.05957 C851.881183,444.041346 851.166021,445.221998 850.150391,446.601562 L849.490986,447.456129 C849.17408,447.861026 848.786623,448.350583 848.328613,448.924805 L846.56833,451.117125 C846.389802,451.337706 846.21696,451.550617 846.049805,451.755859 L845.046875,453 L842.253906,453 L848.995117,444.646484 C848.038732,445.154299 847.086593,445.408203 846.138672,445.408203 C845.063797,445.408203 844.075688,445.173342 843.174316,444.703613 C842.272945,444.233884 841.547203,443.554692 840.99707,442.666016 C840.446937,441.777339 840.171875,440.765956 840.171875,439.631836 C840.171875,437.905265 840.764317,436.474941 841.949219,435.34082 C843.134121,434.2067 844.682933,433.639648 846.595703,433.639648 Z M846.671875,435.569336 C845.410801,435.569336 844.412113,435.956539 843.675781,436.730957 C842.939449,437.505375 842.571289,438.45963 842.571289,439.59375 C842.571289,440.778652 842.926754,441.726559 843.637695,442.4375 C844.348636,443.148441 845.334629,443.503906 846.595703,443.503906 C847.932949,443.503906 848.921058,443.135746 849.560059,442.399414 C850.199059,441.663082 850.518555,440.706712 850.518555,439.530273 C850.518555,438.370762 850.190596,437.420739 849.534668,436.680176 C848.87874,435.939612 847.924485,435.569336 846.671875,435.569336 Z" id="Combined-Shape" fill="#FFFFFF" fill-rule="nonzero"></path>
        <polygon id="7" fill="#FFFFFF" fill-rule="nonzero" points="597.135742 369.079576 603.661133 352.055162 595.091797 352.055162 595.231445 350.087388 606.238281 350.087388 606.238281 351.813951 599.446289 369.079576"></polygon>
        <path d="M600.620605,403.639648 C601.610845,403.639648 602.510087,403.798338 603.318359,404.115723 C604.126632,404.433107 604.791013,404.868975 605.311523,405.42334 C605.832034,405.977705 606.234048,406.625159 606.517578,407.365723 C606.801108,408.106286 606.942871,408.908199 606.942871,409.771484 C606.942871,410.981777 606.735516,412.077795 606.320801,413.05957 C605.906085,414.041346 605.190923,415.221998 604.175293,416.601562 L603.515889,417.456129 C603.198982,417.861026 602.811526,418.350583 602.353516,418.924805 L600.593232,421.117125 C600.414704,421.337706 600.241863,421.550617 600.074707,421.755859 L599.071777,423 L596.278809,423 L603.02002,414.646484 C602.063635,415.154299 601.111496,415.408203 600.163574,415.408203 C599.088699,415.408203 598.10059,415.173342 597.199219,414.703613 C596.297847,414.233884 595.572106,413.554692 595.021973,412.666016 C594.47184,411.777339 594.196777,410.765956 594.196777,409.631836 C594.196777,407.905265 594.789219,406.474941 595.974121,405.34082 C597.159023,404.2067 598.707835,403.639648 600.620605,403.639648 Z M600.696777,405.569336 C599.435703,405.569336 598.437015,405.956539 597.700684,406.730957 C596.964352,407.505375 596.596191,408.45963 596.596191,409.59375 C596.596191,410.778652 596.951657,411.726559 597.662598,412.4375 C598.373539,413.148441 599.359531,413.503906 600.620605,413.503906 C601.957852,413.503906 602.94596,413.135746 603.584961,412.399414 C604.223962,411.663082 604.543457,410.706712 604.543457,409.530273 C604.543457,408.370762 604.215498,407.420739 603.55957,406.680176 C602.903643,405.939612 601.949388,405.569336 600.696777,405.569336 Z" id="9" fill="#FFFFFF" fill-rule="nonzero"></path>
        <path d="M366.850586,398.079576 L366.558594,395.997545 L373.12207,388.710435 C373.562177,388.219547 373.987465,387.584788 374.397949,386.806138 C374.757123,386.12482 375.030433,385.534228 375.217888,385.034349 L375.584961,384.025865 C375.584961,382.97638 375.292972,382.161773 374.708984,381.582017 C374.124997,381.002262 373.295578,380.712388 372.220703,380.712388 C370.426423,380.712388 369.013026,381.232891 367.980469,382.273912 L367.244141,380.369615 C368.412115,379.269349 370.121734,378.719224 372.373047,378.719224 C374.099618,378.719224 375.47493,379.18683 376.499023,380.122056 C377.523117,381.057282 378.035156,382.307758 378.035156,383.873521 L377.93042,384.207963 L377.93042,384.207963 L377.826075,384.510089 C377.746351,384.72988 377.619268,385.063587 377.444824,385.511216 C377.220539,386.08674 376.985678,386.632633 376.740234,387.148912 C376.49479,387.66519 376.183758,388.232242 375.807129,388.850084 C375.430499,389.467925 375.047528,389.984196 374.658203,390.398912 L369.300781,396.124498 L378.098633,396.124498 L377.958984,398.079576 L366.850586,398.079576 Z" id="2" fill="#FFFFFF" fill-rule="nonzero"></path>
        <path d="M439.79541,398.371568 C438.66129,398.371568 437.652023,398.223457 436.767578,397.927232 C435.883134,397.631007 435.237795,397.288237 434.831543,396.898912 L435.54248,395.032701 C436.735846,395.972159 438.157707,396.44188 439.808105,396.44188 C441.077643,396.44188 442.08691,396.126617 442.835938,395.49608 C443.584965,394.865543 443.959473,393.983227 443.959473,392.849107 C443.959473,392.231265 443.864259,391.69172 443.673828,391.230455 C443.483397,390.769189 443.229494,390.396797 442.912109,390.113267 C442.594725,389.829737 442.188479,389.601224 441.693359,389.42772 C441.19824,389.254217 440.690432,389.131497 440.169922,389.059556 C439.753514,389.002004 439.284298,388.962056 438.762267,388.939712 L437.670532,388.913957 C437.644084,388.913692 437.62028,388.91356 437.599121,388.91356 L437.599121,387.021959 L438.233887,387.021959 C438.826338,387.013495 439.348956,386.981757 439.801758,386.926744 C440.25456,386.87173 440.707355,386.772285 441.160156,386.628404 C441.612958,386.484523 441.987466,386.294095 442.283691,386.057115 C442.579917,385.820134 442.821125,385.502755 443.007324,385.104966 C443.193523,384.707178 443.286621,384.237456 443.286621,383.695787 C443.286621,381.664527 442.122896,380.648912 439.79541,380.648912 C438.957515,380.648912 438.170414,380.771632 437.434082,381.017076 C436.69775,381.26252 436.067223,381.592595 435.54248,382.00731 L434.831543,380.153795 C436.092617,379.19741 437.908029,378.719224 440.277832,378.719224 C441.234217,378.719224 442.118648,378.894841 442.931152,379.24608 C443.743656,379.597318 444.41227,380.134748 444.937012,380.858384 C445.461754,381.582021 445.724121,382.430482 445.724121,383.403795 C445.724121,384.588696 445.432132,385.561994 444.848145,386.323716 C444.264157,387.085439 443.443202,387.631332 442.385254,387.961412 C443.570156,388.215319 444.49902,388.769676 445.171875,389.624498 C445.84473,390.47932 446.181152,391.562642 446.181152,392.874498 C446.181152,394.541824 445.584479,395.874818 444.391113,396.873521 C443.197748,397.872224 441.665862,398.371568 439.79541,398.371568 Z" id="3" fill="#FFFFFF" fill-rule="nonzero"></path>
        <path d="M894.289062,386.387193 C895.355474,386.387193 896.341467,386.638981 897.24707,387.142564 C898.152674,387.646147 898.880531,388.361309 899.430664,389.288072 C899.980797,390.214834 900.255859,391.24526 900.255859,392.37938 C900.255859,394.105952 899.673997,395.536276 898.510254,396.670396 C897.346511,397.804516 895.81251,398.371568 893.908203,398.371568 C892.917964,398.371568 892.01449,398.204415 891.197754,397.870103 C890.381018,397.535792 889.708173,397.082997 889.179199,396.511705 C888.650225,395.940413 888.239748,395.276031 887.947754,394.518541 C887.65576,393.76105 887.509766,392.950674 887.509766,392.087388 C887.509766,390.707824 887.761553,389.474275 888.265137,388.386705 C888.735148,387.371639 889.560881,386.104075 890.742358,384.58398 L891.340703,383.829341 C891.600703,383.506373 891.927732,383.104187 892.321796,382.62278 L893.374742,381.343267 C893.734009,380.909382 894.068404,380.508661 894.37793,380.141099 L895.177734,379.176255 L898.110352,379.176255 L891.432617,387.148912 C892.389002,386.641097 893.341141,386.387193 894.289062,386.387193 Z M889.90918,392.328599 C889.90918,393.081858 890.050943,393.763166 890.334473,394.372545 C890.618003,394.981923 891.062334,395.479151 891.66748,395.864244 C892.272627,396.249337 892.994136,396.44188 893.832031,396.44188 C895.084642,396.44188 896.068519,396.056793 896.783691,395.286607 C897.498864,394.516421 897.856445,393.56005 897.856445,392.417466 C897.856445,391.215637 897.498864,390.227529 896.783691,389.453111 C896.068519,388.678693 895.084642,388.29149 893.832031,388.29149 C892.503249,388.29149 891.517256,388.668114 890.874023,389.421373 C890.230791,390.174632 889.90918,391.143697 889.90918,392.328599 Z" id="64" fill="#FFFFFF" fill-rule="nonzero"></path>
        <path d="M913.509766,379.087388 L913.509766,391.528795 L915.845703,391.528795 L915.667969,393.369615 L913.509766,393.369615 L913.509766,398.079576 L911.376953,398.079576 L911.376953,393.369615 L902.794922,393.369615 L902.794922,391.427232 L911.135742,379.087388 L913.509766,379.087388 Z M911.376953,381.969224 L905.029297,391.528795 L911.376953,391.528795 L911.376953,381.969224 Z" id="Combined-Shape" fill="#FFFFFF" fill-rule="nonzero"></path>
        <path d="M886.202148,434.007812 L888.220703,434.007812 L888.220703,453 L885.973633,453 L885.973633,436.356445 C885.118811,436.915042 884.073574,437.393227 882.837891,437.791016 L882.837891,435.670898 L884.596191,434.90918 L884.596191,434.90918 L884.87041,434.77918 C885.020214,434.705039 885.189062,434.617188 885.376953,434.515625 C885.690106,434.346353 885.965168,434.177084 886.202148,434.007812 Z M903.061523,434.007812 L902.883789,436.089844 L895.126953,436.089844 L894.945915,441.735694 C894.942677,441.849304 894.939546,441.960518 894.936523,442.069336 C895.892908,441.459958 896.929682,441.155273 898.046875,441.155273 C898.986333,441.155273 899.826331,441.3055 900.566895,441.605957 C901.307458,441.906414 901.912595,442.319008 902.382324,442.84375 C902.852053,443.368492 903.209634,443.979977 903.455078,444.678223 C903.700522,445.376468 903.823242,446.131832 903.823242,446.944336 C903.823242,448.86557 903.207526,450.403803 901.976074,451.559082 C900.744623,452.714361 899.070974,453.291992 896.955078,453.291992 C894.830719,453.291992 893.129564,452.712245 891.851562,451.552734 L892.676758,449.762695 C893.929368,450.744471 895.380851,451.235352 897.03125,451.235352 C898.419278,451.235352 899.515295,450.841801 900.319336,450.054688 C901.123376,449.267574 901.525391,448.239264 901.525391,446.969727 C901.525391,445.835606 901.186852,444.915205 900.509766,444.208496 C899.832679,443.501787 898.867845,443.148438 897.615234,443.148438 C896.362624,443.148438 895.355473,443.567379 894.59375,444.405273 L892.829102,444.164062 L893.324219,434.007812 L903.061523,434.007812 Z" id="154" fill="#FFFFFF" fill-rule="nonzero"></path>
        <path d="M917.34375,434.007812 L917.34375,446.449219 L919.679688,446.449219 L919.501953,448.290039 L917.34375,448.290039 L917.34375,453 L915.210938,453 L915.210938,448.290039 L906.628906,448.290039 L906.628906,446.347656 L914.969727,434.007812 L917.34375,434.007812 Z M915.210938,436.889648 L908.863281,446.449219 L915.210938,446.449219 L915.210938,436.889648 Z M666.538086,349.719224 C668.256193,349.719224 669.648432,350.142397 670.714844,350.988755 C671.781255,351.835114 672.314453,353.007303 672.314453,354.505357 C672.314453,355.62255 672.026696,356.561994 671.451172,357.323716 C670.875648,358.085439 670.07162,358.669417 669.039062,359.07567 C670.181646,359.481922 671.078773,360.133608 671.730469,361.030748 C672.382165,361.927888 672.708008,362.981588 672.708008,364.19188 C672.708008,365.816889 672.121913,367.086407 670.949707,368.000474 C669.777501,368.914541 668.306975,369.371568 666.538086,369.371568 C665.387039,369.371568 664.348149,369.179024 663.421387,368.793931 C662.494624,368.408838 661.743492,367.818512 661.167969,367.022935 C660.592445,366.227358 660.304688,365.283683 660.304688,364.19188 C660.304688,362.981588 660.651689,361.927888 661.345703,361.030748 C662.039717,360.133608 663.008783,359.481922 664.25293,359.07567 C661.883126,358.237775 660.698242,356.714352 660.698242,354.505357 C660.698242,353.007303 661.239903,351.835114 662.323242,350.988755 C663.406581,350.142397 664.811515,349.719224 666.538086,349.719224 Z M666.538086,360.154771 C665.327793,360.434069 664.358728,360.901675 663.630859,361.557603 C662.902991,362.213531 662.539062,363.040834 662.539062,364.039537 C662.539062,365.080558 662.915686,365.90786 663.668945,366.52147 C664.422204,367.13508 665.378575,367.44188 666.538086,367.44188 C667.697597,367.44188 668.643388,367.13508 669.375488,366.52147 C670.107588,365.90786 670.473633,365.080558 670.473633,364.039537 C670.473633,363.03237 670.118168,362.200836 669.407227,361.544908 C668.696286,360.88898 667.739915,360.425606 666.538086,360.154771 Z M666.538086,351.648912 C665.539383,351.648912 664.690921,351.898584 663.992676,352.397935 C663.29443,352.897287 662.945312,353.582827 662.945312,354.454576 C662.945312,356.451982 664.142892,357.717268 666.538086,358.250474 C668.899426,357.717268 670.080078,356.451982 670.080078,354.454576 C670.080078,353.582827 669.737308,352.897287 669.051758,352.397935 C668.366208,351.898584 667.528325,351.648912 666.538086,351.648912 Z" id="8" fill="#FFFFFF" fill-rule="nonzero"></path>
        <path d="M658.48291,404.007812 L660.501465,404.007812 L660.501465,423 L658.254395,423 L658.254395,406.356445 C657.399573,406.915042 656.354336,407.393227 655.118652,407.791016 L655.118652,405.670898 L656.876953,404.90918 L656.876953,404.90918 L657.151172,404.77918 C657.300976,404.705039 657.469823,404.617188 657.657715,404.515625 C657.970867,404.346353 658.24593,404.177084 658.48291,404.007812 Z" id="10" fill="#FFFFFF" fill-rule="nonzero"></path>
        <path d="M670.492676,403.639648 C671.576015,403.639648 672.534501,403.876625 673.368164,404.350586 C674.201827,404.824547 674.878904,405.499507 675.399414,406.375488 C675.919924,407.251469 676.311359,408.284011 676.57373,409.473145 C676.836102,410.662278 676.967285,411.993157 676.967285,413.46582 C676.967285,414.896166 676.844565,416.195307 676.599121,417.363281 C676.353677,418.531256 675.977053,419.563798 675.469238,420.460938 C674.961423,421.358077 674.284347,422.056313 673.437988,422.555664 C672.600093,423.046552 671.618332,423.291992 670.492676,423.291992 C669.367019,423.291992 668.381026,423.044436 667.534668,422.549316 C666.68831,422.054197 666.009117,421.358077 665.49707,420.460938 C664.985023,419.563798 664.604168,418.531256 664.354492,417.363281 C664.104816,416.195307 663.97998,414.896166 663.97998,413.46582 C663.97998,412.289382 664.062499,411.201828 664.227539,410.203125 C664.392579,409.204422 664.648599,408.298832 664.995605,407.486328 C665.342612,406.673824 665.772133,405.984052 666.28418,405.416992 C666.796227,404.849932 667.407711,404.411948 668.118652,404.103027 C668.829593,403.794107 669.620927,403.639648 670.492676,403.639648 Z M670.492676,405.569336 C669.62939,405.569336 668.888838,405.90999 668.270996,406.591309 C667.653154,407.272627 667.18978,408.195144 666.880859,409.358887 C666.571939,410.52263 666.41748,411.866203 666.41748,413.389648 C666.41748,414.938484 666.571939,416.307448 666.880859,417.496582 C667.18978,418.685716 667.653154,419.627275 668.270996,420.321289 C668.888838,421.015303 669.62939,421.362305 670.492676,421.362305 C671.355961,421.362305 672.096514,421.015303 672.714355,420.321289 C673.332197,419.627275 673.795571,418.685716 674.104492,417.496582 C674.413413,416.307448 674.567871,414.938484 674.567871,413.389648 C674.567871,411.866203 674.413413,410.52263 674.104492,409.358887 C673.795571,408.195144 673.332197,407.274743 672.714355,406.597656 C672.096514,405.912106 671.355961,405.569336 670.492676,405.569336 Z" id="Combined-Shape" fill="#FFFFFF" fill-rule="nonzero"></path>
        <path d="M596.386719,458.007812 L598.405273,458.007812 L598.405273,477 L596.158203,477 L596.158203,460.356445 C595.303381,460.915042 594.258144,461.393227 593.022461,461.791016 L593.022461,459.670898 L594.780762,458.90918 L594.780762,458.90918 L595.05498,458.77918 C595.204785,458.705039 595.373632,458.617188 595.561523,458.515625 C595.874676,458.346353 596.149738,458.177084 596.386719,458.007812 Z M604.333984,458.007812 L606.352539,458.007812 L606.352539,477 L604.105469,477 L604.105469,460.356445 C603.250647,460.915042 602.20541,461.393227 600.969727,461.791016 L600.969727,459.670898 L602.728027,458.90918 L602.728027,458.90918 L603.002246,458.77918 C603.15205,458.705039 603.320897,458.617188 603.508789,458.515625 C603.821942,458.346353 604.097004,458.177084 604.333984,458.007812 Z" id="11" fill="#FFFFFF" fill-rule="nonzero"></path>
        <path d="M659.276367,458.007812 L661.294922,458.007812 L661.294922,477 L659.047852,477 L659.047852,460.356445 C658.19303,460.915042 657.147793,461.393227 655.912109,461.791016 L655.912109,459.670898 L657.67041,458.90918 L657.67041,458.90918 L657.944629,458.77918 C658.094433,458.705039 658.26328,458.617188 658.451172,458.515625 C658.764324,458.346353 659.039387,458.177084 659.276367,458.007812 Z M664.824219,477 L664.532227,474.917969 L671.095703,467.630859 C671.535809,467.139972 671.961098,466.505212 672.371582,465.726562 C672.730755,465.045244 673.004066,464.454652 673.191521,463.954774 L673.558594,462.946289 C673.558594,461.896805 673.266604,461.082197 672.682617,460.502441 C672.09863,459.922686 671.269211,459.632812 670.194336,459.632812 C668.400056,459.632812 666.986659,460.153315 665.954102,461.194336 L665.217773,459.290039 C666.385748,458.189773 668.095366,457.639648 670.34668,457.639648 C672.073251,457.639648 673.448563,458.107254 674.472656,459.04248 C675.49675,459.977706 676.008789,461.228182 676.008789,462.793945 L675.945313,463.001831 L675.945313,463.001831 L675.799708,463.430513 C675.731373,463.618905 675.628244,463.890991 675.490319,464.246774 L675.418457,464.431641 C675.194172,465.007164 674.959311,465.553057 674.713867,466.069336 C674.468423,466.585615 674.157391,467.152666 673.780762,467.770508 C673.404132,468.388349 673.021161,468.90462 672.631836,469.319336 L667.274414,475.044922 L676.072266,475.044922 L675.932617,477 L664.824219,477 Z" id="12" fill="#FFFFFF" fill-rule="nonzero"></path>
        <path d="M310.898926,431.087388 L310.898926,443.528795 L313.234863,443.528795 L313.057129,445.369615 L310.898926,445.369615 L310.898926,450.079576 L308.766113,450.079576 L308.766113,445.369615 L300.184082,445.369615 L300.184082,443.427232 L308.524902,431.087388 L310.898926,431.087388 Z M308.766113,433.969224 L302.418457,443.528795 L308.766113,443.528795 L308.766113,433.969224 Z" id="4" fill="#FFFFFF" fill-rule="nonzero"></path>
        <path d="M377.774902,431.087388 L377.597168,433.16942 L369.840332,433.16942 L369.649902,439.148912 L369.649902,439.148912 C370.606287,438.539534 371.643061,438.234849 372.760254,438.234849 C373.699712,438.234849 374.53971,438.385076 375.280273,438.685533 C376.020837,438.98599 376.625974,439.398584 377.095703,439.923326 C377.565432,440.448068 377.923013,441.059553 378.168457,441.757798 C378.413901,442.456044 378.536621,443.211408 378.536621,444.023912 C378.536621,445.945145 377.920905,447.483379 376.689453,448.638658 C375.458002,449.793937 373.784353,450.371568 371.668457,450.371568 C369.544097,450.371568 367.842943,449.791821 366.564941,448.63231 L367.390137,446.842271 C368.642747,447.824047 370.09423,448.314927 371.744629,448.314927 C373.132657,448.314927 374.228674,447.921377 375.032715,447.134263 C375.836755,446.34715 376.23877,445.31884 376.23877,444.049302 C376.23877,442.915182 375.900231,441.994781 375.223145,441.288072 C374.546058,440.581363 373.581224,440.228013 372.328613,440.228013 C371.076003,440.228013 370.068851,440.646954 369.307129,441.484849 L367.54248,441.243638 L368.037598,431.087388 L377.774902,431.087388 Z" id="5" fill="#FFFFFF" fill-rule="nonzero"></path>
        <path d="M371.146484,622.408203 C371.146484,618.261047 372.301746,614.503272 374.612305,611.134766 L376.580078,611.134766 C374.396473,614.537126 373.304688,618.277974 373.304688,622.357422 C373.304688,624.270192 373.592445,626.19986 374.167969,628.146484 C374.743492,630.093109 375.547521,631.857739 376.580078,633.44043 L374.637695,633.44043 C373.545893,631.925448 372.691084,630.217946 372.073242,628.317871 C371.455401,626.417796 371.146484,624.447927 371.146484,622.408203 Z M391.814453,625.290039 L389.65625,625.290039 L389.65625,630 L387.523438,630 L387.523438,625.290039 L378.941406,625.290039 L378.941406,623.347656 L387.282227,611.007812 L389.65625,611.007812 L389.65625,623.449219 L391.992188,623.449219 L391.814453,625.290039 Z M387.523438,613.889648 L381.175781,623.449219 L387.523438,623.449219 L387.523438,613.889648 Z M395.661133,633.529297 L394.328125,633.529297 L394.637177,630.821623 C394.705282,630.21529 394.762642,629.674254 394.809257,629.19851 L394.898004,628.231119 C394.935619,627.791015 394.965712,627.39041 394.988281,627.029297 L397.489258,627.029297 L397.489258,627.587891 C397.074542,629.26368 396.465173,631.244129 395.661133,633.529297 Z M418.588867,611.007812 L418.411133,613.089844 L410.654297,613.089844 L410.493986,618.025274 C410.482975,618.394863 410.472935,618.742883 410.463867,619.069336 C411.420252,618.459958 412.457026,618.155273 413.574219,618.155273 C414.513677,618.155273 415.353675,618.3055 416.094238,618.605957 C416.834802,618.906414 417.439939,619.319008 417.909668,619.84375 C418.379397,620.368492 418.736978,620.979977 418.982422,621.678223 C419.227866,622.376468 419.350586,623.131832 419.350586,623.944336 C419.350586,625.86557 418.734869,627.403803 417.503418,628.559082 C416.271966,629.714361 414.598318,630.291992 412.482422,630.291992 C410.358062,630.291992 408.656907,629.712245 407.378906,628.552734 L408.204102,626.762695 C409.456712,627.744471 410.908195,628.235352 412.558594,628.235352 C413.946622,628.235352 415.042639,627.841801 415.84668,627.054688 C416.65072,626.267574 417.052734,625.239264 417.052734,623.969727 C417.052734,622.835606 416.714196,621.915205 416.037109,621.208496 C415.360023,620.501787 414.395189,620.148438 413.142578,620.148438 C411.889968,620.148438 410.882816,620.567379 410.121094,621.405273 L408.356445,621.164062 L408.851562,611.007812 L418.588867,611.007812 Z M423.501953,633.529297 L422.168945,633.529297 L422.517571,630.465659 C422.568616,630.001487 422.612785,629.579105 422.650078,629.19851 L422.676758,628.920898 C422.744466,628.201494 422.795247,627.570966 422.829102,627.029297 L425.330078,627.029297 L425.330078,627.587891 C424.915363,629.26368 424.305994,631.244129 423.501953,633.529297 Z M441.770508,618.307617 C442.836919,618.307617 443.822912,618.559405 444.728516,619.062988 C445.634119,619.566572 446.361976,620.281734 446.912109,621.208496 C447.462242,622.135259 447.737305,623.165684 447.737305,624.299805 C447.737305,626.026376 447.155442,627.4567 445.991699,628.59082 C444.827956,629.724941 443.293955,630.291992 441.389648,630.291992 C440.399409,630.291992 439.495935,630.124839 438.679199,629.790527 C437.862463,629.456216 437.189619,629.003421 436.660645,628.432129 C436.131671,627.860837 435.721193,627.196456 435.429199,626.438965 C435.137206,625.681474 434.991211,624.871098 434.991211,624.007812 C434.991211,622.628248 435.242999,621.394699 435.746582,620.307129 C436.216593,619.292063 437.042326,618.024499 438.223803,616.504405 L438.697735,615.904648 C438.935391,615.608086 439.240077,615.232307 439.611796,614.777306 L441.120974,612.944495 C441.381098,612.631518 441.627231,612.337194 441.859375,612.061523 L442.65918,611.09668 L445.591797,611.09668 L438.914062,619.069336 C439.870447,618.561521 440.822586,618.307617 441.770508,618.307617 Z M437.390625,624.249023 C437.390625,625.002282 437.532388,625.683591 437.815918,626.292969 C438.099448,626.902347 438.54378,627.399575 439.148926,627.784668 C439.754072,628.169761 440.475582,628.362305 441.313477,628.362305 C442.566087,628.362305 443.549964,627.977217 444.265137,627.207031 C444.98031,626.436845 445.337891,625.480474 445.337891,624.337891 C445.337891,623.136062 444.98031,622.147953 444.265137,621.373535 C443.549964,620.599117 442.566087,620.211914 441.313477,620.211914 C439.984694,620.211914 438.998701,620.588538 438.355469,621.341797 C437.712236,622.095056 437.390625,623.064122 437.390625,624.249023 Z M455.329102,622.408203 C455.329102,624.447927 455.020185,626.415681 454.402344,628.311523 C453.784502,630.207366 452.925461,631.916985 451.825195,633.44043 L449.895508,633.44043 C450.928065,631.857739 451.732093,630.093109 452.307617,628.146484 C452.883141,626.19986 453.170898,624.270192 453.170898,622.357422 C453.170898,618.294902 452.074881,614.554054 449.882812,611.134766 L451.850586,611.134766 C454.169608,614.554054 455.329102,618.311828 455.329102,622.408203 Z M472.404297,620.44043 C472.404297,621.608404 472.027673,622.615556 471.274414,623.461914 C470.521155,624.308272 469.632492,624.731445 468.608398,624.731445 C467.567378,624.731445 466.682946,624.316736 465.955078,623.487305 C465.22721,622.657873 464.863281,621.667649 464.863281,620.516602 C464.863281,619.357091 465.244137,618.349939 466.005859,617.495117 C466.767582,616.640295 467.652013,616.212891 468.65918,616.212891 C469.683273,616.212891 470.563473,616.629716 471.299805,617.463379 C472.036136,618.297042 472.404297,619.289382 472.404297,620.44043 Z M481.925781,622.408203 C481.925781,618.261047 483.081043,614.503272 485.391602,611.134766 L487.359375,611.134766 C485.17577,614.537126 484.083984,618.277974 484.083984,622.357422 C484.083984,624.270192 484.371742,626.19986 484.947266,628.146484 C485.522789,630.093109 486.326818,631.857739 487.359375,633.44043 L485.416992,633.44043 C484.32519,631.925448 483.470381,630.217946 482.852539,628.317871 C482.234697,626.417796 481.925781,624.447927 481.925781,622.408203 Z M491.663086,630 L498.188477,612.975586 L489.619141,612.975586 L489.758789,611.007812 L500.765625,611.007812 L500.765625,612.734375 L493.973633,630 L491.663086,630 Z M504.421875,633.529297 L503.088867,633.529297 L503.437493,630.465659 C503.475777,630.11753 503.510193,629.792908 503.540741,629.491792 L503.59668,628.920898 C503.664388,628.201494 503.715169,627.570966 503.749023,627.029297 L506.25,627.029297 L506.25,627.587891 C505.835284,629.26368 505.225915,631.244129 504.421875,633.529297 Z M521.662109,622.408203 C520.587234,622.408203 519.599126,622.173342 518.697754,621.703613 C517.796382,621.233884 517.070641,620.554692 516.520508,619.666016 C515.970375,618.777339 515.695312,617.765956 515.695312,616.631836 C515.695312,614.905265 516.287754,613.474941 517.472656,612.34082 C518.657558,611.2067 520.206371,610.639648 522.119141,610.639648 C523.10938,610.639648 524.008622,610.798338 524.816895,611.115723 C525.625167,611.433107 526.289548,611.868975 526.810059,612.42334 C527.330569,612.977705 527.732583,613.625159 528.016113,614.365723 C528.299643,615.106286 528.441406,615.908199 528.441406,616.771484 C528.441406,617.981777 528.234052,619.077795 527.819336,620.05957 C527.40462,621.041346 526.689458,622.221998 525.673828,623.601562 L525.383,623.982197 C525.126565,624.314528 524.799581,624.731518 524.402045,625.233171 L522.644409,627.432374 C522.264608,627.904215 521.907554,628.345376 521.573242,628.755859 L520.570312,630 L517.777344,630 L524.518555,621.646484 C523.56217,622.154299 522.610031,622.408203 521.662109,622.408203 Z M526.041992,616.530273 C526.041992,615.370762 525.714033,614.420739 525.058105,613.680176 C524.402178,612.939612 523.447923,612.569336 522.195312,612.569336 C520.934238,612.569336 519.935551,612.956539 519.199219,613.730957 C518.462887,614.505375 518.094727,615.45963 518.094727,616.59375 C518.094727,617.778652 518.450192,618.726559 519.161133,619.4375 C519.872074,620.148441 520.858067,620.503906 522.119141,620.503906 C523.456387,620.503906 524.444496,620.135746 525.083496,619.399414 C525.722497,618.663082 526.041992,617.706712 526.041992,616.530273 Z M532.110352,633.529297 L530.777344,633.529297 L531.086395,630.821623 C531.168122,630.094023 531.234375,629.460452 531.285156,628.920898 L531.374024,627.908447 C531.399414,627.593181 531.420573,627.300132 531.4375,627.029297 L533.938477,627.029297 L533.938477,627.587891 C533.523761,629.26368 532.914392,631.244129 532.110352,633.529297 Z M546.125977,611.007812 L548.144531,611.007812 L548.144531,630 L545.897461,630 L545.897461,613.356445 C545.042639,613.915042 543.997402,614.393227 542.761719,614.791016 L542.761719,612.670898 L544.52002,611.90918 L544.52002,611.90918 L544.794238,611.77918 C544.944043,611.705039 545.11289,611.617188 545.300781,611.515625 C545.613934,611.346353 545.888996,611.177084 546.125977,611.007812 Z M554.073242,611.007812 L556.091797,611.007812 L556.091797,630 L553.844727,630 L553.844727,613.356445 C552.989905,613.915042 551.944668,614.393227 550.708984,614.791016 L550.708984,612.670898 L552.467285,611.90918 L552.467285,611.90918 L552.741504,611.77918 C552.891308,611.705039 553.060155,611.617188 553.248047,611.515625 C553.561199,611.346353 553.836262,611.177084 554.073242,611.007812 Z M564.610352,622.408203 C564.610352,624.447927 564.301435,626.415681 563.683594,628.311523 C563.065752,630.207366 562.206711,631.916985 561.106445,633.44043 L559.176758,633.44043 C560.209315,631.857739 561.013343,630.093109 561.588867,628.146484 C562.164391,626.19986 562.452148,624.270192 562.452148,622.357422 C562.452148,618.294902 561.356131,614.554054 559.164062,611.134766 L561.131836,611.134766 C563.450858,614.554054 564.610352,618.311828 564.610352,622.408203 Z M574.081055,625.213867 L574.081055,623.411133 L586.332031,623.411133 L586.332031,625.213867 L574.081055,625.213867 Z M574.068359,619.856445 L574.068359,618.02832 L586.332031,618.02832 L586.332031,619.856445 L574.068359,619.856445 Z M608.726562,625.290039 L606.568359,625.290039 L606.568359,630 L604.435547,630 L604.435547,625.290039 L595.853516,625.290039 L595.853516,623.347656 L604.194336,611.007812 L606.568359,611.007812 L606.568359,623.449219 L608.904297,623.449219 L608.726562,625.290039 Z M604.435547,613.889648 L598.087891,623.449219 L604.435547,623.449219 L604.435547,613.889648 Z M615.353516,622.916016 L610.44043,616.073242 L612.865234,616.073242 L616.584961,621.379883 L620.317383,616.073242 L622.742188,616.073242 L617.816406,622.941406 L622.869141,630 L620.520508,630 L616.597656,624.401367 L612.674805,630 L610.25,630 L615.353516,622.916016 Z M626.588867,630 L633.114258,612.975586 L624.544922,612.975586 L624.68457,611.007812 L635.691406,611.007812 L635.691406,612.734375 L628.899414,630 L626.588867,630 Z M651.205078,620.884766 L656.15625,620.884766 L656.15625,622.611328 L651.192383,622.611328 L651.192383,628.057617 L649.453125,628.057617 L649.453125,622.611328 L644.413086,622.611328 L644.413086,620.884766 L649.46582,620.884766 L649.46582,615.501953 L651.205078,615.501953 L651.205078,620.884766 Z M676.646484,611.007812 L676.46875,613.089844 L668.711914,613.089844 L668.530876,618.735694 C668.527638,618.849304 668.524507,618.960518 668.521484,619.069336 C669.477869,618.459958 670.514643,618.155273 671.631836,618.155273 C672.571294,618.155273 673.411292,618.3055 674.151855,618.605957 C674.892419,618.906414 675.497556,619.319008 675.967285,619.84375 C676.437014,620.368492 676.794595,620.979977 677.040039,621.678223 C677.285483,622.376468 677.408203,623.131832 677.408203,623.944336 C677.408203,625.86557 676.792487,627.403803 675.561035,628.559082 C674.329584,629.714361 672.655935,630.291992 670.540039,630.291992 C668.415679,630.291992 666.714525,629.712245 665.436523,628.552734 L666.261719,626.762695 C667.514329,627.744471 668.965812,628.235352 670.616211,628.235352 C672.004239,628.235352 673.100256,627.841801 673.904297,627.054688 C674.708337,626.267574 675.110352,625.239264 675.110352,623.969727 C675.110352,622.835606 674.771813,621.915205 674.094727,621.208496 C673.41764,620.501787 672.452806,620.148438 671.200195,620.148438 C669.947585,620.148438 668.940433,620.567379 668.178711,621.405273 L666.414062,621.164062 L666.90918,611.007812 L676.646484,611.007812 Z M684.339844,622.916016 L679.426758,616.073242 L681.851562,616.073242 L685.571289,621.379883 L689.303711,616.073242 L691.728516,616.073242 L686.802734,622.941406 L691.855469,630 L689.506836,630 L685.583984,624.401367 L681.661133,630 L679.236328,630 L684.339844,622.916016 Z M699.320312,622.408203 C698.245437,622.408203 697.257329,622.173342 696.355957,621.703613 C695.454585,621.233884 694.728844,620.554692 694.178711,619.666016 C693.628578,618.777339 693.353516,617.765956 693.353516,616.631836 C693.353516,614.905265 693.945958,613.474941 695.130859,612.34082 C696.315761,611.2067 697.864574,610.639648 699.777344,610.639648 C700.767583,610.639648 701.666825,610.798338 702.475098,611.115723 C703.28337,611.433107 703.947751,611.868975 704.468262,612.42334 C704.988772,612.977705 705.390786,613.625159 705.674316,614.365723 C705.957846,615.106286 706.099609,615.908199 706.099609,616.771484 C706.099609,617.981777 705.892255,619.077795 705.477539,620.05957 C705.062823,621.041346 704.347661,622.221998 703.332031,623.601562 L703.041203,623.982197 C702.784768,624.314528 702.457784,624.731518 702.060248,625.233171 L700.022026,627.780502 C699.745706,628.122878 699.482179,628.447997 699.231445,628.755859 L698.228516,630 L695.435547,630 L702.176758,621.646484 C701.220373,622.154299 700.268234,622.408203 699.320312,622.408203 Z M703.700195,616.530273 C703.700195,615.370762 703.372236,614.420739 702.716309,613.680176 C702.060381,612.939612 701.106126,612.569336 699.853516,612.569336 C698.592442,612.569336 697.593754,612.956539 696.857422,613.730957 C696.12109,614.505375 695.75293,615.45963 695.75293,616.59375 C695.75293,617.778652 696.108395,618.726559 696.819336,619.4375 C697.530277,620.148441 698.51627,620.503906 699.777344,620.503906 C701.11459,620.503906 702.102699,620.135746 702.741699,619.399414 C703.3807,618.663082 703.700195,617.706712 703.700195,616.530273 Z M721.625977,620.884766 L726.577148,620.884766 L726.577148,622.611328 L721.613281,622.611328 L721.613281,628.057617 L719.874023,628.057617 L719.874023,622.611328 L714.833984,622.611328 L714.833984,620.884766 L719.886719,620.884766 L719.886719,615.501953 L721.625977,615.501953 L721.625977,620.884766 Z M742.408203,618.307617 C743.474615,618.307617 744.460607,618.559405 745.366211,619.062988 C746.271814,619.566572 746.999672,620.281734 747.549805,621.208496 C748.099938,622.135259 748.375,623.165684 748.375,624.299805 C748.375,626.026376 747.793137,627.4567 746.629395,628.59082 C745.465652,629.724941 743.93165,630.291992 742.027344,630.291992 C741.037104,630.291992 740.13363,630.124839 739.316895,629.790527 C738.500159,629.456216 737.827314,629.003421 737.29834,628.432129 C736.769366,627.860837 736.358888,627.196456 736.066895,626.438965 C735.774901,625.681474 735.628906,624.871098 735.628906,624.007812 C735.628906,622.628248 735.880694,621.394699 736.384277,620.307129 C736.854288,619.292063 737.680021,618.024499 738.861498,616.504405 L739.459844,615.749766 C739.763176,615.37297 740.157745,614.888349 740.643555,614.295898 L741.758669,612.944495 C742.018793,612.631518 742.264926,612.337194 742.49707,612.061523 L743.296875,611.09668 L746.229492,611.09668 L739.551758,619.069336 C740.508143,618.561521 741.460282,618.307617 742.408203,618.307617 Z M738.02832,624.249023 C738.02832,625.002282 738.170083,625.683591 738.453613,626.292969 C738.737143,626.902347 739.181475,627.399575 739.786621,627.784668 C740.391767,628.169761 741.113277,628.362305 741.951172,628.362305 C743.203782,628.362305 744.187659,627.977217 744.902832,627.207031 C745.618005,626.436845 745.975586,625.480474 745.975586,624.337891 C745.975586,623.136062 745.618005,622.147953 744.902832,621.373535 C744.187659,620.599117 743.203782,620.211914 741.951172,620.211914 C740.622389,620.211914 739.636396,620.588538 738.993164,621.341797 C738.349932,622.095056 738.02832,623.064122 738.02832,624.249023 Z M755.040039,622.916016 L750.126953,616.073242 L752.551758,616.073242 L756.271484,621.379883 L760.003906,616.073242 L762.428711,616.073242 L757.50293,622.941406 L762.555664,630 L760.207031,630 L756.28418,624.401367 L752.361328,630 L749.936523,630 L755.040039,622.916016 Z M766.795898,611.007812 L768.814453,611.007812 L768.814453,630 L766.567383,630 L766.567383,613.356445 C765.712561,613.915042 764.667324,614.393227 763.431641,614.791016 L763.431641,612.670898 L765.189941,611.90918 L765.189941,611.90918 L765.46416,611.77918 C765.613964,611.705039 765.782812,611.617188 765.970703,611.515625 C766.283856,611.346353 766.558918,611.177084 766.795898,611.007812 Z M774.743164,611.007812 L776.761719,611.007812 L776.761719,630 L774.514648,630 L774.514648,613.356445 C773.659826,613.915042 772.61459,614.393227 771.378906,614.791016 L771.378906,612.670898 L773.137207,611.90918 L773.137207,611.90918 L773.411426,611.77918 C773.56123,611.705039 773.730077,611.617188 773.917969,611.515625 C774.231121,611.346353 774.506184,611.177084 774.743164,611.007812 Z M787.019531,625.213867 L787.019531,623.411133 L799.270508,623.411133 L799.270508,625.213867 L787.019531,625.213867 Z M787.006836,619.856445 L787.006836,618.02832 L799.270508,618.02832 L799.270508,619.856445 L787.006836,619.856445 Z M811.254883,611.007812 L813.273438,611.007812 L813.273438,630 L811.026367,630 L811.026367,613.356445 C810.171545,613.915042 809.126308,614.393227 807.890625,614.791016 L807.890625,612.670898 L809.648926,611.90918 L809.648926,611.90918 L809.923145,611.77918 C810.072949,611.705039 810.241796,611.617188 810.429688,611.515625 C810.74284,611.346353 811.017902,611.177084 811.254883,611.007812 Z M821.665039,630.291992 C820.530919,630.291992 819.521652,630.143882 818.637207,629.847656 C817.752763,629.551431 817.107424,629.208661 816.701172,628.819336 L817.412109,626.953125 C818.605475,627.892583 820.027335,628.362305 821.677734,628.362305 C822.947272,628.362305 823.956539,628.047041 824.705566,627.416504 C825.454594,626.785967 825.829102,625.903652 825.829102,624.769531 C825.829102,624.15169 825.733888,623.612144 825.543457,623.150879 C825.353026,622.689614 825.099123,622.317221 824.781738,622.033691 C824.464354,621.750161 824.058108,621.521648 823.562988,621.348145 C823.067869,621.174641 822.560061,621.051921 822.039551,620.97998 C821.51904,620.90804 820.916019,620.863607 820.230469,620.84668 L819.46875,620.833984 L819.46875,620.833984 L819.46875,618.942383 L820.103516,618.942383 C820.695967,618.933919 821.218585,618.902181 821.671387,618.847168 C822.124188,618.792155 822.576983,618.692709 823.029785,618.548828 C823.482587,618.404947 823.857095,618.214519 824.15332,617.977539 C824.449546,617.740559 824.690754,617.423179 824.876953,617.025391 C825.063152,616.627602 825.15625,616.15788 825.15625,615.616211 C825.15625,613.584951 823.992525,612.569336 821.665039,612.569336 C820.827144,612.569336 820.040043,612.692056 819.303711,612.9375 C818.567379,613.182944 817.936852,613.513019 817.412109,613.927734 L816.701172,612.074219 C817.962246,611.117834 819.777657,610.639648 822.147461,610.639648 C823.103846,610.639648 823.988277,610.815265 824.800781,611.166504 C825.613285,611.517743 826.281898,612.055172 826.806641,612.778809 C827.331383,613.502445 827.59375,614.350907 827.59375,615.324219 C827.59375,616.509121 827.301761,617.482418 826.717773,618.244141 C826.133786,619.005863 825.312831,619.551756 824.254883,619.881836 C825.439785,620.135743 826.368649,620.6901 827.041504,621.544922 C827.714359,622.399744 828.050781,623.483066 828.050781,624.794922 C828.050781,626.462248 827.454108,627.795242 826.260742,628.793945 C825.067377,629.792648 823.535491,630.291992 821.665039,630.291992 Z" id="(4,5,6)•(7,9,11)=4x7+5x9+6x11=139" fill="#FFFFFF" fill-rule="nonzero"></path>
        <path d="M836.886719,610.639648 C837.876958,610.639648 838.7762,610.798338 839.584473,611.115723 C840.392745,611.433107 841.057126,611.868975 841.577637,612.42334 C842.098147,612.977705 842.500161,613.625159 842.783691,614.365723 C843.067221,615.106286 843.208984,615.908199 843.208984,616.771484 C843.208984,617.981777 843.00163,619.077795 842.586914,620.05957 C842.172198,621.041346 841.457036,622.221998 840.441406,623.601562 L839.782002,624.456129 C839.465096,624.861026 839.077639,625.350583 838.619629,625.924805 L836.859345,628.117125 C836.680818,628.337706 836.507976,628.550617 836.34082,628.755859 L835.337891,630 L832.544922,630 L839.286133,621.646484 C838.329748,622.154299 837.377609,622.408203 836.429688,622.408203 C835.354812,622.408203 834.366704,622.173342 833.465332,621.703613 C832.56396,621.233884 831.838219,620.554692 831.288086,619.666016 C830.737953,618.777339 830.462891,617.765956 830.462891,616.631836 C830.462891,614.905265 831.055333,613.474941 832.240234,612.34082 C833.425136,611.2067 834.973949,610.639648 836.886719,610.639648 Z M836.962891,612.569336 C835.701817,612.569336 834.703129,612.956539 833.966797,613.730957 C833.230465,614.505375 832.862305,615.45963 832.862305,616.59375 C832.862305,617.778652 833.21777,618.726559 833.928711,619.4375 C834.639652,620.148441 835.625645,620.503906 836.886719,620.503906 C838.223965,620.503906 839.212074,620.135746 839.851074,619.399414 C840.490075,618.663082 840.80957,617.706712 840.80957,616.530273 C840.80957,615.370762 840.481611,614.420739 839.825684,613.680176 C839.169756,612.939612 838.215501,612.569336 836.962891,612.569336 Z M444.797363,431.176255 L438.119629,439.148912 C439.076014,438.641097 440.028153,438.387193 440.976074,438.387193 C442.042486,438.387193 443.028479,438.638981 443.934082,439.142564 C444.839686,439.646147 445.567543,440.361309 446.117676,441.288072 C446.667809,442.214834 446.942871,443.24526 446.942871,444.37938 C446.942871,446.105952 446.361008,447.536276 445.197266,448.670396 C444.033523,449.804516 442.499521,450.371568 440.595215,450.371568 C439.604976,450.371568 438.701501,450.204415 437.884766,449.870103 C437.06803,449.535792 436.395185,449.082997 435.866211,448.511705 C435.337237,447.940413 434.926759,447.276031 434.634766,446.518541 C434.342772,445.76105 434.196777,444.950674 434.196777,444.087388 C434.196777,442.707824 434.448565,441.474275 434.952148,440.386705 C435.422159,439.371639 436.247892,438.104075 437.42937,436.58398 L438.027715,435.829341 C438.287714,435.506373 438.614744,435.104187 439.008808,434.62278 L440.061753,433.343267 C440.421021,432.909382 440.755416,432.508661 441.064941,432.141099 L441.864746,431.176255 L444.797363,431.176255 Z M440.519043,440.29149 C439.19026,440.29149 438.204268,440.668114 437.561035,441.421373 C436.917803,442.174632 436.596191,443.143697 436.596191,444.328599 C436.596191,445.081858 436.737954,445.763166 437.021484,446.372545 C437.305014,446.981923 437.749346,447.479151 438.354492,447.864244 C438.959638,448.249337 439.681148,448.44188 440.519043,448.44188 C441.771653,448.44188 442.75553,448.056793 443.470703,447.286607 C444.185876,446.516421 444.543457,445.56005 444.543457,444.417466 C444.543457,443.215637 444.185876,442.227529 443.470703,441.453111 C442.75553,440.678693 441.771653,440.29149 440.519043,440.29149 Z" id="6" fill="#FFFFFF" fill-rule="nonzero"></path>
        <polygon id="Line-2-Copy-5" fill="#FFFFFF" fill-rule="nonzero" points="258 346.044071 284.956017 346.631652 285.043187 342.632602 254 341.955929 254 486 285.000077 486 285.000077 482 258 482"></polygon>
        <polygon id="Line-2-Copy-7" fill="#FFFFFF" fill-rule="nonzero" points="787 346.044071 813.956017 346.631652 814.043187 342.632602 783 341.955929 783 486 814.000077 486 814.000077 482 787 482"></polygon>
        <polygon id="Line-2-Copy-9" fill="#FFFFFF" fill-rule="nonzero" points="552 317.044071 578.956017 317.631652 579.043187 313.632602 548 312.955929 548 515 579.000077 515 579.000077 511 552 511"></polygon>
        <polygon id="Line-2-Copy-6" fill="#FFFFFF" fill-rule="nonzero" transform="translate(475.521594, 413.977965) rotate(-180.000000) translate(-475.521594, -413.977965) " points="464 346.044071 490.956017 346.631652 491.043187 342.632602 460 341.955929 460 486 491.000077 486 491.000077 482 464 482"></polygon>
        <polygon id="Line-2-Copy-8" fill="#FFFFFF" fill-rule="nonzero" transform="translate(943.521594, 413.977965) rotate(-180.000000) translate(-943.521594, -413.977965) " points="932 346.044071 958.956017 346.631652 959.043187 342.632602 928 341.955929 928 486 959.000077 486 959.000077 482 932 482"></polygon>
        <polygon id="Line-2-Copy-10" fill="#FFFFFF" fill-rule="nonzero" transform="translate(708.521594, 413.977965) rotate(-180.000000) translate(-708.521594, -413.977965) " points="697 317.044071 723.956017 317.631652 724.043187 313.632602 693 312.955929 693 515 724.000077 515 724.000077 511 697 511"></polygon>
        <path d="M601.545121,312.884722 C638.464347,283.787797 682.728409,275.669324 734.242078,288.521931 C783.872009,300.904546 816.77805,339.09012 832.929893,402.937512 L832.929893,402.937512 L834.777,410.866 L837.560075,401.31143 L839.480293,401.870682 L835.133237,416.796485 L824.635028,405.330706 L826.11011,403.980102 L832.83,411.319 L830.986536,403.409753 C815.16747,340.878516 783.256043,303.405394 735.21854,290.835721 L733.757922,290.462444 C682.052734,277.562054 637.876482,286.0028 601.129538,315.776969 L601.129538,315.776969 L600.571959,316.228747 L599.965457,315.845141 C551.877313,285.429908 502.683722,278.305016 452.30509,294.444511 C402.01194,310.55662 371.589993,349.107431 360.981627,410.250523 L360.981627,410.250523 L359.011066,409.908629 C369.740905,348.065411 400.654726,308.891296 451.69491,292.539864 C502.437774,276.283682 552.041874,283.369894 600.428604,313.772868 L600.428604,313.772868 L601.545121,312.884722 Z" id="Path" fill="#FA4359" fill-rule="nonzero"></path>
    </g>
</svg>